# xmcd
#
# Track frame offsets: 
#        150
#        25291
#        47106
#        74183
#        96268
#        117853
#        141160
#        169038
#        196025
#        220337
#        244673
#        258516
#
# Disc length: 3680 seconds
#
# Revision: 2
# Processed by: cddbd v1.5.2PL0 Copyright (c) Steve Scherf et al.
# Submitted via: ExactAudioCopy v0.99pb4
#
DISCID=b30e5e0c
DTITLE=Great White - ...Twice Shy (Remastered)
DYEAR=2005
DGENRE=Hard Rock
TTITLE0=Move It
TTITLE1=Heart The Hunter
TTITLE2=Hiway Nights
TTITLE3=The Angel Song
TTITLE4=Bitches And Other Women (Bonus Track)
TTITLE5=Mista Bone
TTITLE6=Baby's On Fire
TTITLE7=House Of Broken Love
TTITLE8=She Only
TTITLE9=Once Bitten Twice Shy
TTITLE10=Wasted Rock Ranger (Bonus Track)
TTITLE11=Slow Ride (Bonus Track)
EXTD=YEAR: 1989
EXTT0=
EXTT1=
EXTT2=
EXTT3=
EXTT4=
EXTT5=
EXTT6=
EXTT7=
EXTT8=
EXTT9=
EXTT10=
EXTT11=
PLAYORDER=
